<?xml version="1.0" encoding="utf-8"?>
<!-- Generator: Adobe Illustrator 16.0.0, SVG Export Plug-In . SVG Version: 6.00 Build 0)  -->
<!DOCTYPE svg PUBLIC "-//W3C//DTD SVG 1.1//EN" "http://www.w3.org/Graphics/SVG/1.1/DTD/svg11.dtd">
<svg version="1.1" id="Layer_1" xmlns="http://www.w3.org/2000/svg" xmlns:xlink="http://www.w3.org/1999/xlink" x="0px" y="0px"
	 width="24px" height="24px" viewBox="0 0 350 350" enable-background="new 0 0 350 350" xml:space="preserve">
<path display="none" d="M71.784,283.291c-3.217,0-6.1-1.184-8.337-3.421l-15.574-15.654c-4.568-4.569-4.567-12.013,0.007-16.587
	c2.219-2.218,5.165-3.439,8.296-3.439s6.078,1.223,8.296,3.44l7.389,7.39l23.122-23.196c2.224-2.222,5.169-3.443,8.302-3.443
	c3.132,0,6.077,1.222,8.296,3.438c2.218,2.22,3.439,5.164,3.439,8.298c0,3.131-1.222,6.077-3.439,8.295L80.12,279.87
	C77.776,282.1,74.838,283.291,71.784,283.291z"/>
<g>
	<path d="M231.74,169.296l-70.626-51.34c-2.592-1.879-6.033-2.162-8.874-0.702c-2.864,1.449-4.652,4.392-4.652,7.572v102.646
		c0,3.214,1.788,6.146,4.652,7.595c1.211,0.611,2.535,0.916,3.871,0.916c1.743,0,3.509-0.555,5.003-1.651l70.626-51.295
		c2.229-1.641,3.53-4.177,3.53-6.87C235.281,173.427,233.946,170.903,231.74,169.296z"/>
	<path d="M175.646,5.905C81.704,5.905,5.577,82.032,5.577,175.974c0,93.907,76.127,170.013,170.069,170.013
		c93.919,0,170.057-76.116,170.057-170.013C345.714,82.032,269.565,5.905,175.646,5.905z M175.646,317.611
		c-78.232,0-141.66-63.395-141.66-141.638c0-78.21,63.428-141.683,141.66-141.683c78.221,0,141.637,63.462,141.637,141.683
		C317.294,254.217,253.866,317.611,175.646,317.611z"/>
</g>
</svg>
